<svg xmlns="http://www.w3.org/2000/svg" width="1400" height="500" viewBox="0 0 1400 500" role="img" aria-labelledby="title desc">
  <title id="title">Class Coach logo option 5</title>
  <desc id="desc">Logo option 5: shield for Class Coach, an AI learning companion.</desc>
  <rect width="1400" height="500" rx="54" fill="#ffffff"/>
  <rect x="18" y="18" width="1364" height="464" rx="44" fill="none" stroke="#0b8793" stroke-opacity=".12" stroke-width="2"/>

        <g transform="translate(88 76)">
          <path d="M138 12 L250 54 V128 C250 200 208 252 138 286 C68 252 26 200 26 128 V54 Z" fill="#eaf9f8" stroke="#0b8793" stroke-width="13" stroke-linejoin="round"/>
          <path d="M78 112 H196" stroke="#f2c94c" stroke-width="13" stroke-linecap="round"/>
          <path d="M78 150 H174" stroke="#0b8793" stroke-width="11" stroke-linecap="round" opacity=".78"/>
          <path d="M84 198 Q112 180 138 198 Q166 180 196 198" fill="none" stroke="#132a44" stroke-width="10" stroke-linecap="round"/>
          <path d="M212 78 Q232 88 238 110" fill="none" stroke="#f2c94c" stroke-width="8" stroke-linecap="round"/>
        </g>
  <g transform="translate(420 148)">
    <text x="0" y="0" font-family="Inter, Arial, sans-serif" font-size="118" font-weight="900" letter-spacing="-7" fill="#132a44">Class</text>
    <text x="420" y="0" font-family="Inter, Arial, sans-serif" font-size="118" font-weight="900" letter-spacing="-7" fill="#0b8793">Coach</text>
    <rect x="2" y="42" width="578" height="12" rx="6" fill="#f2c94c" opacity=".92"/>
    <text x="2" y="118" font-family="Inter, Arial, sans-serif" font-size="43" font-weight="760" letter-spacing=".3" fill="#132a44" opacity=".86">AI learning companion</text>
    <text x="2" y="176" font-family="Inter, Arial, sans-serif" font-size="24" font-weight="750" letter-spacing="1.2" fill="#0b8793" opacity=".82">safe support · teacher-visible progress</text>
  </g>
</svg>
